<svg width="20" height="20" viewBox="0 0 20 20" fill="none" xmlns="http://www.w3.org/2000/svg">
<path d="M9.96094 19.9561C11.3216 19.9561 12.6026 19.6956 13.8037 19.1748C15.0049 18.654 16.0645 17.9346 16.9824 17.0166C17.9004 16.0986 18.6198 15.0391 19.1406 13.8379C19.6615 12.6367 19.9219 11.3558 19.9219 9.99512C19.9219 8.63444 19.6615 7.35351 19.1406 6.15234C18.6198 4.95117 17.9004 3.8916 16.9824 2.97363C16.0645 2.05566 15.0033 1.33626 13.7988 0.81543C12.5944 0.294596 11.3119 0.0341797 9.95117 0.0341797C8.5905 0.0341797 7.30957 0.294596 6.1084 0.81543C4.90723 1.33626 3.84928 2.05566 2.93457 2.97363C2.01986 3.8916 1.30208 4.95117 0.78125 6.15234C0.260417 7.35351 0 8.63444 0 9.99512C0 11.3558 0.260417 12.6367 0.78125 13.8379C1.30208 15.0391 2.02148 16.0986 2.93945 17.0166C3.85742 17.9346 4.91699 18.654 6.11816 19.1748C7.31933 19.6956 8.60026 19.9561 9.96094 19.9561Z" fill="#011308"/>
<path d="M5.19531 10.0049C5.19531 9.75097 5.27669 9.54427 5.43945 9.38477C5.60221 9.22526 5.81054 9.14551 6.06445 9.14551H9.12109V6.08887C9.12109 5.83496 9.19759 5.62663 9.35059 5.46387C9.50358 5.30111 9.70378 5.21973 9.95117 5.21973C10.2051 5.21973 10.4118 5.30111 10.5713 5.46387C10.7308 5.62663 10.8105 5.83496 10.8105 6.08887V9.14551H13.877C14.1309 9.14551 14.3376 9.22526 14.4971 9.38477C14.6566 9.54427 14.7363 9.75097 14.7363 10.0049C14.7363 10.2523 14.6549 10.4525 14.4922 10.6055C14.3294 10.7585 14.1243 10.835 13.877 10.835H10.8105V13.9014C10.8105 14.1552 10.7308 14.3619 10.5713 14.5215C10.4118 14.681 10.2051 14.7608 9.95117 14.7608C9.70378 14.7608 9.50358 14.681 9.35059 14.5215C9.19759 14.3619 9.12109 14.1552 9.12109 13.9014V10.835H6.06445C5.81054 10.835 5.60221 10.7585 5.43945 10.6055C5.27669 10.4525 5.19531 10.2523 5.19531 10.0049Z" fill="white"/>
</svg>
