<svg width="10" height="17" viewBox="0 0 10 17" fill="none" xmlns="http://www.w3.org/2000/svg">
<path d="M9.55078 8.47656C9.55078 8.35287 9.52637 8.23731 9.47754 8.12988C9.42871 8.02246 9.35873 7.92318 9.26758 7.83203L1.5332 0.253906C1.35742 0.0846353 1.14258 0 0.888672 0C0.725911 0 0.576172 0.0390627 0.439453 0.117188C0.302734 0.195313 0.195313 0.301107 0.117188 0.43457C0.0390627 0.568034 0 0.719401 0 0.888672C0 1.12956 0.0846353 1.34115 0.253906 1.52344L7.36328 8.47656L0.253906 15.4297C0.0846353 15.612 0 15.8236 0 16.0645C0 16.2338 0.0390627 16.3851 0.117188 16.5186C0.195313 16.6521 0.302734 16.7578 0.439453 16.8359C0.576172 16.914 0.725911 16.9531 0.888672 16.9531C1.14258 16.9531 1.35742 16.8652 1.5332 16.6895L9.26758 9.12109C9.35873 9.02995 9.42871 8.93067 9.47754 8.82324C9.52637 8.71582 9.55078 8.60026 9.55078 8.47656Z" fill="#0CC14C"/>
</svg>
