<svg width="53" height="54" viewBox="0 0 53 54" fill="none" xmlns="http://www.w3.org/2000/svg">
<path d="M26.3822 20.3653C28.6134 20.3653 28.9176 20.3653 29.8303 20.3653C30.6416 20.3653 31.0473 20.5682 31.3515 20.6696C31.7572 20.8724 32.0614 20.9738 32.3657 21.2781C32.6699 21.5823 32.8728 21.8865 32.9742 22.2922C33.0756 22.5964 33.177 23.0021 33.2784 23.8134C33.2784 24.7262 33.2784 24.929 33.2784 27.2615C33.2784 29.594 33.2784 29.7969 33.2784 30.7096C33.2784 31.5209 33.0756 31.9266 32.9742 32.2308C32.7713 32.6365 32.6699 32.9407 32.3657 33.245C32.0614 33.5492 31.7572 33.752 31.3515 33.8534C31.0473 33.9549 30.6416 34.0563 29.8303 34.1577C28.9176 34.1577 28.7148 34.1577 26.3822 34.1577C24.0497 34.1577 23.8469 34.1577 22.9341 34.1577C22.1228 34.1577 21.7172 33.9549 21.4129 33.8534C21.0073 33.6506 20.703 33.5492 20.3988 33.245C20.0945 32.9407 19.8917 32.6365 19.7903 32.2308C19.6889 31.9266 19.5875 31.5209 19.4861 30.7096C19.4861 29.7969 19.4861 29.594 19.4861 27.2615C19.4861 24.929 19.4861 24.7262 19.4861 23.8134C19.4861 23.0021 19.6889 22.5964 19.7903 22.2922C19.9931 21.8865 20.0945 21.5823 20.3988 21.2781C20.703 20.9738 21.0073 20.771 21.4129 20.6696C21.7172 20.5682 22.1228 20.4667 22.9341 20.3653C23.8469 20.3653 24.1511 20.3653 26.3822 20.3653ZM26.3822 18.8441C24.0497 18.8441 23.8469 18.8441 22.9341 18.8441C22.0214 18.8441 21.4129 19.0469 20.9059 19.2498C20.3988 19.4526 19.8917 19.7568 19.3846 20.2639C18.8776 20.771 18.6747 21.1766 18.3705 21.7851C18.1677 22.2922 18.0663 22.9007 17.9648 23.8134C17.9648 24.7262 17.9648 25.0304 17.9648 27.2615C17.9648 29.594 17.9648 29.7969 17.9648 30.7096C17.9648 31.6223 18.1677 32.2308 18.3705 32.7379C18.5733 33.245 18.8776 33.752 19.3846 34.2591C19.8917 34.7662 20.2974 34.969 20.9059 35.2732C21.4129 35.4761 22.0214 35.5775 22.9341 35.6789C23.8469 35.6789 24.1511 35.6789 26.3822 35.6789C28.6134 35.6789 28.9176 35.6789 29.8303 35.6789C30.7431 35.6789 31.3515 35.4761 31.8586 35.2732C32.3657 35.0704 32.8728 34.7662 33.3798 34.2591C33.8869 33.752 34.0897 33.3464 34.394 32.7379C34.5968 32.2308 34.6982 31.6223 34.7996 30.7096C34.7996 29.7969 34.7996 29.4926 34.7996 27.2615C34.7996 25.0304 34.7996 24.7262 34.7996 23.8134C34.7996 22.9007 34.5968 22.2922 34.394 21.7851C34.1911 21.2781 33.8869 20.771 33.3798 20.2639C32.8728 19.7568 32.4671 19.554 31.8586 19.2498C31.3515 19.0469 30.7431 18.9455 29.8303 18.8441C28.9176 18.8441 28.7148 18.8441 26.3822 18.8441Z" fill="black"/>
<path d="M26.3822 22.9007C23.9483 22.9007 22.0214 24.8276 22.0214 27.2615C22.0214 29.6955 23.9483 31.6223 26.3822 31.6223C28.8162 31.6223 30.7431 29.6955 30.7431 27.2615C30.7431 24.8276 28.8162 22.9007 26.3822 22.9007ZM26.3822 30.1011C24.861 30.1011 23.5426 28.8841 23.5426 27.2615C23.5426 25.7403 24.7596 24.4219 26.3822 24.4219C27.9035 24.4219 29.2218 25.6389 29.2218 27.2615C29.2218 28.7827 27.9035 30.1011 26.3822 30.1011Z" fill="black"/>
<path d="M30.8445 23.8134C31.4046 23.8134 31.8586 23.3594 31.8586 22.7993C31.8586 22.2392 31.4046 21.7851 30.8445 21.7851C30.2844 21.7851 29.8303 22.2392 29.8303 22.7993C29.8303 23.3594 30.2844 23.8134 30.8445 23.8134Z" fill="black"/>
<rect x="0.604212" y="1.48348" width="51.5565" height="51.5565" rx="25.7783" stroke="black" stroke-opacity="0.125" stroke-width="1.05217"/>
</svg>
