<svg width="10" height="18" viewBox="0 0 10 18" fill="none" xmlns="http://www.w3.org/2000/svg">
<path d="M9.55078 8.99511C9.55078 8.87142 9.52637 8.75586 9.47754 8.64843C9.42871 8.54101 9.35873 8.44173 9.26758 8.35058L1.5332 0.772461C1.35742 0.60319 1.14258 0.518555 0.888672 0.518555C0.725911 0.518555 0.576172 0.557617 0.439453 0.635743C0.302734 0.713867 0.195313 0.819661 0.117188 0.953125C0.0390627 1.08659 0 1.23796 0 1.40723C0 1.64811 0.0846353 1.8597 0.253906 2.04199L7.36328 8.99511L0.253906 15.9483C0.0846353 16.1305 0 16.3421 0 16.5831C0 16.7523 0.0390627 16.9037 0.117188 17.0372C0.195313 17.1706 0.302734 17.2764 0.439453 17.3545C0.576172 17.4326 0.725911 17.4717 0.888672 17.4717C1.14258 17.4717 1.35742 17.3838 1.5332 17.2081L9.26758 9.63964C9.35873 9.5485 9.42871 9.44922 9.47754 9.34179C9.52637 9.23438 9.55078 9.11881 9.55078 8.99511Z" fill="#112208"/>
</svg>
