<svg width="18" height="15" viewBox="0 0 18 15" fill="none" xmlns="http://www.w3.org/2000/svg">
<path d="M18 7.34732C18 7.10176 17.9031 6.88529 17.7092 6.69789L11.2827 0.290791C11.1793 0.187399 11.0743 0.113086 10.9677 0.0678513C10.8611 0.0226171 10.7496 0 10.6333 0C10.3942 0 10.1939 0.0791599 10.0323 0.23748C9.87073 0.395799 9.78996 0.594507 9.78996 0.833601C9.78996 0.949914 9.80935 1.06138 9.84813 1.16801C9.8869 1.27463 9.94507 1.36672 10.0226 1.44426L12.1939 3.65427L16.042 7.16316L16.2358 6.67851L13.1147 6.48464H0.852987C0.600968 6.48464 0.395799 6.56541 0.23748 6.72696C0.0791598 6.88851 0 7.0953 0 7.34732C0 7.59934 0.0791598 7.80612 0.23748 7.96767C0.395799 8.12922 0.600968 8.21 0.852987 8.21H13.1147L16.2358 8.01614L16.042 7.54119L12.1939 11.0403L10.0226 13.2504C9.94507 13.3279 9.8869 13.42 9.84813 13.5266C9.80935 13.6333 9.78996 13.7447 9.78996 13.861C9.78996 14.1001 9.87073 14.2989 10.0323 14.4571C10.1939 14.6155 10.3942 14.6947 10.6333 14.6947C10.8659 14.6947 11.076 14.6042 11.2633 14.4232L17.7092 7.99675C17.9031 7.80936 18 7.59288 18 7.34732Z" fill="white" fill-opacity="0.85"/>
</svg>
