<svg width="54" height="54" viewBox="0 0 54 54" fill="none" xmlns="http://www.w3.org/2000/svg">
<path d="M32.3984 20.5117C32.7963 20.5117 33.1778 20.6698 33.4591 20.9511C33.7404 21.2324 33.8984 21.6139 33.8984 22.0117V32.5117C33.8984 32.9095 33.7404 33.2911 33.4591 33.5724C33.1778 33.8537 32.7963 34.0117 32.3984 34.0117H21.8984C21.5006 34.0117 21.1191 33.8537 20.8378 33.5724C20.5565 33.2911 20.3984 32.9095 20.3984 32.5117V22.0117C20.3984 21.6139 20.5565 21.2324 20.8378 20.9511C21.1191 20.6698 21.5006 20.5117 21.8984 20.5117H32.3984ZM32.0234 32.1367V28.1617C32.0234 27.5133 31.7658 26.8914 31.3073 26.4328C30.8488 25.9743 30.2269 25.7167 29.5784 25.7167C28.9409 25.7167 28.1984 26.1067 27.8384 26.6917V25.8592H25.7459V32.1367H27.8384V28.4392C27.8384 27.8617 28.3034 27.3892 28.8809 27.3892C29.1594 27.3892 29.4265 27.4998 29.6234 27.6968C29.8203 27.8937 29.9309 28.1607 29.9309 28.4392V32.1367H32.0234ZM23.3084 24.6817C23.6426 24.6817 23.9631 24.549 24.1994 24.3127C24.4357 24.0764 24.5684 23.7559 24.5684 23.4217C24.5684 22.7242 24.0059 22.1542 23.3084 22.1542C22.9723 22.1542 22.6499 22.2878 22.4122 22.5255C22.1745 22.7632 22.0409 23.0856 22.0409 23.4217C22.0409 24.1192 22.6109 24.6817 23.3084 24.6817ZM24.3509 32.1367V25.8592H22.2734V32.1367H24.3509Z" fill="black"/>
<rect x="1.36984" y="1.48348" width="51.5565" height="51.5565" rx="25.7783" stroke="black" stroke-opacity="0.125" stroke-width="1.05217"/>
</svg>
