<svg width="124" height="48" viewBox="0 0 124 48" fill="none" xmlns="http://www.w3.org/2000/svg">
<path d="M52.8148 10.3225H48.3516V13.2929C46.1659 11.4434 43.3432 10.3276 40.2607 10.3276C33.3366 10.3276 27.7067 15.9576 27.7067 22.8817C27.7067 29.8058 33.3366 35.4409 40.2607 35.4409C43.3432 35.4409 46.1659 34.32 48.3516 32.4756V35.4409C48.3516 36.6331 48.0918 37.7642 47.6281 38.7832C46.3595 41.5854 43.5317 43.5368 40.2607 43.5368C39.4863 43.5368 38.7373 43.4247 38.0342 43.2209C36.6942 42.8439 35.4969 42.1204 34.5391 41.1626L31.3853 44.3164C31.854 44.78 32.3584 45.2131 32.8934 45.6003C34.9619 47.1084 37.5094 48 40.2607 48C46.8588 48 52.29 42.8796 52.7792 36.4038C52.8046 36.0879 52.8148 35.7669 52.8148 35.4409V22.9581C52.8148 22.9326 52.8199 22.9072 52.8199 22.8817C52.8199 22.8562 52.8148 22.8307 52.8148 22.8053V10.3225ZM48.3516 22.9224C48.3312 27.3653 44.7138 30.9776 40.2607 30.9776C35.7975 30.9776 32.1648 27.3449 32.1648 22.8817C32.1648 18.4185 35.7975 14.7908 40.2607 14.7908C44.7138 14.7908 48.3312 18.3981 48.3516 22.846V22.9224Z" fill="#02270F"/>
<path d="M123.253 22.8817V10.3276H118.79V22.9174C118.775 27.3653 115.152 30.9827 110.699 30.9827C106.236 30.9827 102.603 27.35 102.603 22.8868V10.3225H98.1399V22.8817C98.1399 29.8058 103.775 35.4409 110.699 35.4409C113.776 35.4409 116.599 34.3251 118.79 32.4756V35.3542C118.79 35.3542 118.79 35.3542 118.785 35.3542C118.79 35.3848 118.79 35.4052 118.79 35.4358C118.79 36.628 118.53 37.7591 118.066 38.7781C116.798 41.5803 113.975 43.5317 110.704 43.5368C109.935 43.5368 109.181 43.4298 108.478 43.226C107.138 42.8439 105.94 42.1255 104.982 41.1676L101.834 44.3215C102.303 44.7902 102.802 45.2182 103.342 45.6054C105.41 47.1135 107.963 48 110.709 48C117.312 47.9949 122.733 42.8694 123.223 36.3936C123.248 36.0777 123.258 35.7619 123.258 35.4409V22.9428C123.253 22.9224 123.258 22.9021 123.253 22.8817Z" fill="#02270F"/>
<path d="M20.65 13.2929C18.4592 11.4434 15.6366 10.3276 12.5541 10.3276C5.62998 10.3276 0 15.9576 0 22.8817C0 29.8058 5.62998 35.4409 12.5541 35.4409C15.6366 35.4409 18.4592 34.32 20.65 32.4705V35.4409H25.1133V10.3276H20.65V13.2929ZM12.5541 30.9777C8.09086 30.9777 4.46322 27.3449 4.46322 22.8817C4.46322 18.4185 8.09086 14.7909 12.5541 14.7909C17.0173 14.7909 20.65 18.4185 20.65 22.8817C20.65 27.3449 17.0173 30.9777 12.5541 30.9777Z" fill="#02270F"/>
<path d="M60.1821 13.2929V10.3276H55.7189V35.4409H60.1821V25.1133V22.8817C60.1821 18.4185 63.8148 14.7857 68.278 14.7857H70.5097V10.3225H68.278C65.1956 10.3276 62.3729 11.4434 60.1821 13.2929Z" fill="#02270F"/>
<path d="M80.6946 12.5592V35.4408H85.1578V14.7908H95.4854V10.3276H85.4788C86.4519 6.94958 89.565 4.46322 93.2537 4.46322H95.4854V0H93.2537C86.3296 0 80.6946 5.63507 80.6946 12.5592Z" fill="#02270F"/>
<path d="M73.2578 10.3223V23.9769V35.4406H77.721V23.9769V12.6762V10.3223H77.4969H73.2578Z" fill="#02270F"/>
</svg>
