<svg width="81" height="29" viewBox="0 0 81 29" fill="none" xmlns="http://www.w3.org/2000/svg">
<g clip-path="url(#clip0_3380_51389)">
<path d="M80.8528 6.32921C79.4078 5.94203 77.7981 6.31701 76.664 7.45112C75.5268 8.58827 75.1549 10.1949 75.542 11.643C76.9871 12.0302 78.5968 11.6552 79.7309 10.5181C80.865 9.38397 81.24 7.77427 80.8528 6.32921Z" fill="#0CC14C"/>
<path d="M31.6024 6.17627H28.9318V7.95364C27.6239 6.84698 25.935 6.17932 24.0905 6.17932C19.9474 6.17932 16.5786 9.54809 16.5786 13.6912C16.5786 17.8344 19.9474 21.2062 24.0905 21.2062C25.935 21.2062 27.6239 20.5355 28.9318 19.4319V21.2062C28.9318 21.9196 28.7763 22.5964 28.4989 23.2061C27.7398 24.8829 26.0478 26.0505 24.0905 26.0505C23.6271 26.0505 23.179 25.9835 22.7583 25.8615C21.9565 25.6359 21.24 25.203 20.6669 24.6298L18.7797 26.517C19.0602 26.7944 19.362 27.0535 19.6822 27.2852C20.9199 28.1876 22.4442 28.7212 24.0905 28.7212C28.0385 28.7212 31.2884 25.6572 31.5811 21.7824C31.5963 21.5934 31.6024 21.4013 31.6024 21.2062V13.737C31.6024 13.7217 31.6055 13.7065 31.6055 13.6912C31.6055 13.676 31.6024 13.6607 31.6024 13.6455V6.17627ZM28.9318 13.7156C28.9196 16.3741 26.7551 18.5356 24.0905 18.5356C21.4199 18.5356 19.2462 16.3619 19.2462 13.6912C19.2462 11.0206 21.4199 8.84995 24.0905 8.84995C26.7551 8.84995 28.9196 11.0084 28.9318 13.6699V13.7156Z" fill="#0CC14C"/>
<path d="M73.75 13.6912V6.17932H71.0794V13.7126C71.0702 16.3741 68.9026 18.5386 66.2381 18.5386C63.5675 18.5386 61.3938 16.3649 61.3938 13.6943V6.17627H58.7231V13.6912C58.7231 17.8344 62.095 21.2062 66.2381 21.2062C68.0795 21.2062 69.7685 20.5385 71.0794 19.4319V21.1544C71.0794 21.1544 71.0794 21.1544 71.0763 21.1544C71.0794 21.1727 71.0794 21.1849 71.0794 21.2031C71.0794 21.9165 70.9239 22.5933 70.6465 23.2031C69.8874 24.8798 68.1984 26.0475 66.2412 26.0505C65.7808 26.0505 65.3296 25.9865 64.9089 25.8646C64.1071 25.6359 63.3907 25.206 62.8175 24.6329L60.9334 26.52C61.2139 26.8005 61.5127 27.0566 61.8358 27.2883C63.0736 28.1907 64.601 28.7212 66.2442 28.7212C70.1953 28.7181 73.4391 25.6511 73.7317 21.7763C73.747 21.5873 73.7531 21.3983 73.7531 21.2062V13.7278C73.75 13.7156 73.7531 13.7034 73.75 13.6912Z" fill="#0CC14C"/>
<path d="M12.3562 7.95401C11.0453 6.84735 9.35636 6.17969 7.51191 6.17969C3.36878 6.17969 0 9.54846 0 13.6916C0 17.8347 3.36878 21.2066 7.51191 21.2066C9.35636 21.2066 11.0453 20.5359 12.3562 19.4292V21.2066H15.0269V6.17969H12.3562V7.95401ZM7.51191 18.5359C4.84128 18.5359 2.67063 16.3622 2.67063 13.6916C2.67063 11.021 4.84128 8.85032 7.51191 8.85032C10.1825 8.85032 12.3562 11.021 12.3562 13.6916C12.3562 16.3622 10.1825 18.5359 7.51191 18.5359Z" fill="#0CC14C"/>
<path d="M36.011 7.95364V6.17932H33.3403V21.2062H36.011V15.0265V13.6912C36.011 11.0206 38.1847 8.8469 40.8553 8.8469H42.1906V6.17627H40.8553C39.0108 6.17932 37.3219 6.84698 36.011 7.95364Z" fill="#0CC14C"/>
<path d="M48.2847 7.51496V21.2065H50.9553V8.85028H57.1349V6.17965H51.1474C51.7297 4.15838 53.5924 2.67063 55.7996 2.67063H57.1349V0H55.7996C51.6565 0 48.2847 3.37182 48.2847 7.51496Z" fill="#0CC14C"/>
<path d="M43.835 6.17627V14.3467V21.2062H46.5056V14.3467V7.58475V6.17627H46.3715H43.835Z" fill="#0CC14C"/>
</g>
<defs>
<clipPath id="clip0_3380_51389">
<rect width="81" height="28.7215" fill="white"/>
</clipPath>
</defs>
</svg>
