<svg width="53" height="54" viewBox="0 0 53 54" fill="none" xmlns="http://www.w3.org/2000/svg">
<path d="M26.6172 19.7617C22.4772 19.7617 19.1172 23.1217 19.1172 27.2617C19.1172 31.4017 22.4772 34.7617 26.6172 34.7617C30.7572 34.7617 34.1172 31.4017 34.1172 27.2617C34.1172 23.1217 30.7572 19.7617 26.6172 19.7617ZM30.0972 24.8617C29.9847 26.0467 29.4972 28.9267 29.2497 30.2542C29.1447 30.8167 28.9347 31.0042 28.7397 31.0267C28.3047 31.0642 27.9747 30.7417 27.5547 30.4642C26.8947 30.0292 26.5197 29.7592 25.8822 29.3392C25.1397 28.8517 25.6197 28.5817 26.0472 28.1467C26.1597 28.0342 28.0797 26.2867 28.1172 26.1292C28.1224 26.1054 28.1217 26.0806 28.1152 26.0571C28.1086 26.0335 28.0965 26.012 28.0797 25.9942C28.0347 25.9567 27.9747 25.9717 27.9222 25.9792C27.8547 25.9942 26.8047 26.6917 24.7572 28.0717C24.4572 28.2742 24.1872 28.3792 23.9472 28.3717C23.6772 28.3642 23.1672 28.2217 22.7847 28.0942C22.3122 27.9442 21.9447 27.8617 21.9747 27.5992C21.9897 27.4642 22.1772 27.3292 22.5297 27.1867C24.7197 26.2342 26.1747 25.6042 26.9022 25.3042C28.9872 24.4342 29.4147 24.2842 29.6997 24.2842C29.7597 24.2842 29.9022 24.2992 29.9922 24.3742C30.0672 24.4342 30.0897 24.5167 30.0972 24.5767C30.0897 24.6217 30.1047 24.7567 30.0972 24.8617Z" fill="black"/>
<rect x="0.838587" y="1.48348" width="51.5565" height="51.5565" rx="25.7783" stroke="black" stroke-opacity="0.125" stroke-width="1.05217"/>
</svg>
