<svg width="54" height="54" viewBox="0 0 54 54" fill="none" xmlns="http://www.w3.org/2000/svg">
<path d="M36.8487 20.8016C36.1598 21.2724 35.3509 21.5223 34.5242 21.52C35.408 20.9836 36.0698 20.1315 36.3838 19.1255C35.6511 19.7635 34.7279 20.1228 33.7687 20.1431C33.1363 19.476 32.3108 19.038 31.4163 18.8951C30.5217 18.7521 29.6063 18.9119 28.8073 19.3503C28.0084 19.7888 27.3691 20.4823 26.9853 21.3268C26.6015 22.1713 26.4939 23.1213 26.6787 24.0341C25.0511 23.9456 23.4598 23.5055 22.0081 22.7423C20.5564 21.9792 19.2767 20.9101 18.2522 19.6044C17.7508 20.5389 17.604 21.6317 17.8402 22.6713C18.0764 23.7109 18.6788 24.6231 19.5307 25.2314C18.8878 25.2407 18.2514 25.0973 17.671 24.8123C17.6867 25.7766 18.0158 26.7076 18.6058 27.4564C19.1958 28.2052 20.0125 28.7286 20.9254 28.9427C20.3178 29.1062 19.6822 29.1267 19.0658 29.0026C19.3317 29.8568 19.8497 30.6043 20.5477 31.1409C21.2456 31.6774 22.0887 31.9762 22.9594 31.9957C21.1205 33.1447 19.0082 33.7457 16.8574 33.7316C18.6587 34.9429 20.751 35.6156 22.9014 35.6746C25.0517 35.7337 27.1759 35.1769 29.0372 34.0662C30.8986 32.9555 32.4243 31.3345 33.4443 29.3837C34.4643 27.4328 34.9387 25.2286 34.8147 23.0165C35.5816 22.3705 36.2651 21.6262 36.8487 20.8016Z" fill="black"/>
<rect x="1.07492" y="1.48348" width="51.5565" height="51.5565" rx="25.7783" stroke="black" stroke-opacity="0.125" stroke-width="1.05217"/>
</svg>
