<svg width="18" height="18" viewBox="0 0 18 18" fill="none" xmlns="http://www.w3.org/2000/svg">
<path d="M0 8.99457C0 9.2635 0.0963055 9.49246 0.288917 9.68144C0.481528 9.87041 0.708664 9.9649 0.970324 9.9649H8.02425V17.0188C8.02425 17.2805 8.11874 17.5076 8.30772 17.7002C8.49669 17.8929 8.72564 17.9892 8.99457 17.9892C9.2635 17.9892 9.49428 17.8929 9.68689 17.7002C9.8795 17.5076 9.97581 17.2805 9.97581 17.0188V9.9649H17.0188C17.2805 9.9649 17.5076 9.87041 17.7002 9.68144C17.8929 9.49246 17.9892 9.2635 17.9892 8.99457C17.9892 8.72564 17.8929 8.49487 17.7002 8.30226C17.5076 8.10965 17.2805 8.01334 17.0188 8.01334H9.97581V0.970324C9.97581 0.708664 9.8795 0.481528 9.68689 0.288917C9.49428 0.0963055 9.2635 0 8.99457 0C8.72564 0 8.49669 0.0963055 8.30772 0.288917C8.11874 0.481528 8.02425 0.708664 8.02425 0.970324V8.01334H0.970324C0.708664 8.01334 0.481528 8.10965 0.288917 8.30226C0.0963055 8.49487 0 8.72564 0 8.99457Z" fill="#0CC14C"/>
</svg>
