<svg width="267" height="282" viewBox="0 0 267 282" fill="none" xmlns="http://www.w3.org/2000/svg">
<rect width="267" height="130.228" rx="17.088" fill="#F7F7F7"/>
<path d="M32.6594 39.224H29.0923L26.935 50.502L24.6281 39.224H21.4668L24.9058 54.71H28.5156L30.8652 43.1756L33.2148 54.71H36.8246L40.2636 39.224H37.145L35.0304 50.5661L32.6594 39.224ZM44.6349 39.224H41.6872V54.71H44.6349V48.7292C44.6349 46.9136 45.0621 45.3329 47.0059 45.3329C48.6719 45.3329 48.9923 46.6359 48.9923 48.1097V54.71H51.94V47.4689C51.94 44.5853 50.7652 42.962 47.9671 42.962C46.5359 42.962 45.2971 43.56 44.6349 44.7348V39.224ZM55.3563 58.448C58.2185 58.448 58.7952 57.9353 60.1623 54.3682L64.3702 43.2183H61.3798L58.7098 51.506L56.1039 43.2183H52.8785L57.2787 54.6672L57.1505 54.9876C56.6379 56.1838 56.2107 56.1838 55.2281 56.1838H54.1174V58.448H55.3563ZM81.0881 49.6263C80.5754 51.7409 79.1016 52.5526 77.2433 52.5526C75.0218 52.5526 73.2062 50.5875 73.2062 46.8922C73.2062 43.3037 75.0218 41.3813 77.3501 41.3813C79.0589 41.3813 80.5113 42.0862 81.0881 44.2436H83.993C83.4804 41.0182 81.0026 38.9463 77.3714 38.9463C72.8645 38.9463 70.0449 42.0008 70.0449 46.8922C70.0449 51.8477 72.6722 54.9876 77.286 54.9876C80.9813 54.9876 83.5872 52.7662 83.993 49.6263H81.0881ZM92.4462 43.2824C92.254 43.261 92.0404 43.2396 91.8054 43.2396C90.4598 43.2396 89.4345 43.795 88.7723 45.2261V43.2183H85.8674V54.71H88.815V48.6864C88.815 46.5291 89.7762 45.9951 91.2287 45.9951C91.6559 45.9951 92.019 45.9951 92.4462 46.0592V43.2824ZM95.3228 58.448C98.1851 58.448 98.7618 57.9353 100.129 54.3682L104.337 43.2183H101.346L98.6764 51.506L96.0704 43.2183H92.8451L97.2452 54.6672L97.1171 54.9876C96.6044 56.1838 96.1772 56.1838 95.1947 56.1838H94.084V58.448H95.3228ZM111.195 52.7235C109.572 52.7235 108.504 51.3564 108.504 48.9641C108.504 46.6572 109.572 45.2261 111.195 45.2261C112.733 45.2261 113.822 46.764 113.822 48.9855C113.822 51.2283 112.733 52.7235 111.195 52.7235ZM108.611 58.448V53.2575C109.358 54.5391 110.704 54.9876 111.9 54.9876C114.634 54.9876 116.92 52.638 116.92 48.9641C116.92 45.3543 114.698 42.962 111.921 42.962C110.469 42.962 109.23 43.6028 108.611 44.6921V43.2183H105.663V58.448H108.611ZM119.231 43.2183H117.608V45.2475H119.231V51.6128C119.231 53.8983 119.722 54.71 122.371 54.71H124.528V52.5953H123.631C122.585 52.5953 122.179 52.3604 122.179 51.1856V45.2475H124.571V43.2183H122.179V40.0997H119.231V43.2183ZM131.458 45.2688C133.081 45.2688 134.235 46.5291 134.235 48.9855C134.235 51.4419 133.081 52.6808 131.458 52.6808C129.835 52.6808 128.681 51.4419 128.681 48.9855C128.681 46.5291 129.835 45.2688 131.458 45.2688ZM131.458 54.9876C134.363 54.9876 137.225 53.0012 137.225 48.9855C137.225 44.9484 134.363 42.962 131.458 42.962C128.553 42.962 125.691 44.9484 125.691 48.9855C125.691 53.0012 128.553 54.9876 131.458 54.9876ZM143.65 38.9463C140.339 38.9463 137.883 40.9328 137.883 44.0727H140.788C140.852 42.0221 142.048 41.1891 143.607 41.1891C144.74 41.1891 145.872 41.894 145.872 43.0047C145.872 44.1154 144.953 44.8203 143.607 45.6106C142.134 46.465 141.322 47.4476 141.322 49.5408V50.2671H144.206V49.6049C144.206 48.0456 144.825 47.5971 146.213 46.7854C147.431 46.1019 148.841 44.7989 148.841 42.8552C148.841 40.1852 146.256 38.9463 143.65 38.9463ZM144.334 54.71V51.506H141.172V54.71H144.334Z" fill="#1A1C1D"/>
<rect x="21.36" y="74.1577" width="224.28" height="6.408" rx="3.204" fill="#BCC4CD"/>
<rect x="21.36" y="89.1099" width="181.026" height="6.408" rx="3.204" fill="#BCC4CD"/>
<mask id="path-5-inside-1_3380_49747" fill="white">
<path d="M211.931 203.581C209.866 219.319 201.767 233.853 188.799 245.092C175.831 256.331 158.661 263.696 139.761 266.127C120.861 268.558 101.204 265.929 83.6184 258.62C66.0327 251.31 51.4245 239.697 41.8955 225.45C32.3664 211.203 28.4077 195.056 30.5888 179.334C32.7699 163.611 40.9784 149.123 54.0334 137.953C67.0884 126.783 84.3169 119.507 103.241 117.172C122.164 114.837 141.808 117.563 159.345 124.958L121.229 191.683L211.931 203.581Z"/>
</mask>
<path d="M211.931 203.581C209.866 219.319 201.767 233.853 188.799 245.092C175.831 256.331 158.661 263.696 139.761 266.127C120.861 268.558 101.204 265.929 83.6184 258.62C66.0327 251.31 51.4245 239.697 41.8955 225.45C32.3664 211.203 28.4077 195.056 30.5888 179.334C32.7699 163.611 40.9784 149.123 54.0334 137.953C67.0884 126.783 84.3169 119.507 103.241 117.172C122.164 114.837 141.808 117.563 159.345 124.958L121.229 191.683L211.931 203.581Z" fill="#92C604" stroke="black" stroke-width="1.65058" mask="url(#path-5-inside-1_3380_49747)"/>
<path d="M100.537 263.489L102.717 248.975C80.8845 243.742 61.9947 230.154 55.3005 223.316L53.6843 238.57C66.6766 252.719 90.3627 260.878 100.537 263.489Z" fill="#5E7D0B"/>
<path d="M161.365 121.316L162.628 110.883L123.606 176.88L130.817 178.588L161.365 121.316Z" fill="#527102"/>
<mask id="path-8-inside-2_3380_49747" fill="white">
<path d="M213.902 190.569C211.544 206.266 203.175 220.647 189.999 231.641C176.823 242.636 159.519 249.679 140.577 251.756C121.634 253.833 102.03 250.838 84.5838 243.202C67.1376 235.565 52.7489 223.681 43.4876 209.258C34.2264 194.836 30.5699 178.618 33.0443 162.939C35.5187 147.26 43.9963 132.927 57.2577 122.003C70.519 111.079 87.8805 104.126 106.844 102.145C125.808 100.164 145.397 103.256 162.793 110.978L123.438 176.98L213.902 190.569Z"/>
</mask>
<path d="M213.902 190.569C211.544 206.266 203.175 220.647 189.999 231.641C176.823 242.636 159.519 249.679 140.577 251.756C121.634 253.833 102.03 250.838 84.5838 243.202C67.1376 235.565 52.7489 223.681 43.4876 209.258C34.2264 194.836 30.5699 178.618 33.0443 162.939C35.5187 147.26 43.9963 132.927 57.2577 122.003C70.519 111.079 87.8805 104.126 106.844 102.145C125.808 100.164 145.397 103.256 162.793 110.978L123.438 176.98L213.902 190.569Z" fill="#CBF35F" stroke="black" stroke-width="1.23794" mask="url(#path-8-inside-2_3380_49747)"/>
<path d="M128.919 175.764L129.811 169.75L214.188 182.258L213.297 188.272L128.919 175.764Z" fill="#26914C" stroke="black" stroke-opacity="0.62" stroke-width="0.412646"/>
<path d="M129.409 171.528L166.254 111.807C207.306 132.447 215.21 168.143 214.029 183.41L129.409 171.528Z" fill="#0CC14C" stroke="black" stroke-opacity="0.57" stroke-width="0.412645"/>
<path d="M213.752 190.888L211.752 204.201L208.771 207.817C210.504 203.851 212.814 194.878 213.752 190.888Z" fill="#6E9604"/>
</svg>
