<svg width="472" height="485" viewBox="0 0 472 485" fill="none" xmlns="http://www.w3.org/2000/svg">
<path d="M380.742 205.795L405.96 226.382L381.33 243.671C381.33 243.671 385.702 233.892 385.714 223.559C385.727 213.226 380.742 205.795 380.742 205.795Z" fill="#8C6257"/>
<path d="M316.89 26.6504C316.89 26.6504 302.115 33.8984 296.337 47.4399C296.337 47.4399 285.607 63.7301 287.687 84.7031C287.687 84.7031 280.426 77.7815 277.995 78.8232C275.563 79.8649 270.725 80.0203 273.53 88.4935C273.53 88.4935 275.514 99.0064 282.236 108.546C288.959 118.086 292.292 121.826 295.644 123.235C295.644 123.235 298.7 135.383 301.325 140.24C303.949 145.097 309.049 153.412 309.049 153.412C309.049 153.412 307.83 180.433 306.331 189.319C304.832 198.206 302.886 203.34 302.886 203.34C302.886 203.34 304.733 211.844 310.575 214.397C316.418 216.949 320.954 219.611 331.222 217.861C341.489 216.11 349.393 214.263 355.357 210.942C361.321 207.621 364.592 202.373 366.694 198.427V142.457C366.694 142.457 369.878 137.507 371.669 130.02C373.46 122.532 373.224 125.138 373.224 125.138C373.224 125.138 379.442 123.3 383.833 118.959C388.223 114.619 392.406 110.098 394.508 105.387C396.61 100.676 400.415 90.7043 397.247 85.1571C394.078 79.6099 392.872 81.3512 387.891 82.0725C384.856 82.511 379.567 89.019 379.567 89.019C379.567 89.019 376.911 71.7369 373.224 63.5031C369.536 55.2694 364.489 44.7285 358.081 39.2062C351.672 33.6839 343.641 27.7014 336.592 26.6628L330.64 36.3331L334.76 36.6814L327.438 43.7926H334.549L334.76 49.1532H326.987L326.921 56.1742L319.282 55.3813V48.1457L313.224 48.522L312.963 44.0444L320.115 43.5967L312.758 36.6689L318.713 36.3207L316.89 26.6504Z" fill="#8C6257"/>
<path d="M295.588 201L267.79 211.79L286.223 233.468C286.223 233.468 286.335 221.423 289.149 214.501C291.068 209.896 293.217 205.39 295.588 201Z" fill="#8C6257"/>
<path d="M32.6973 336.555C32.6973 336.555 35.5424 389.483 64.0619 422.639C64.0619 422.639 87.8489 456.684 133.523 466.55C133.523 466.55 166.592 477.955 201.476 464.019C235.91 450.266 237.894 442.915 246.696 436.295C255.499 429.675 282.352 392.35 285.001 374.978C285.001 374.978 303.148 345.628 259.047 309.972C259.047 309.972 227.169 285.358 183.591 276.745C140.012 268.132 94.2107 274.217 74.7396 286.384C55.2685 298.551 36.7457 307.367 32.6973 336.555Z" fill="#E88828"/>
<path d="M405.961 226.382C405.961 226.382 429.213 247.557 431.722 250.122C434.232 252.687 452.555 272.469 453.435 277.724L463.131 340.028L466.908 368.218L471 399.358V415.991C471 415.991 465.136 425.173 447.929 427.912C430.721 430.651 421.387 429.342 414.692 428.951C407.998 428.559 396.3 427.128 396.3 427.128L384.288 425.229C384.288 425.229 378.691 424.74 377.584 423.12C377.584 423.12 365.949 422.138 356.217 423.777C346.484 425.415 326.932 431.933 326.932 431.933L306.721 440.017L273.581 453.3L251.314 461.854L240.848 465.157C240.137 465.362 239.391 465.42 238.657 465.327C237.923 465.233 237.216 464.99 236.579 464.612C234.384 463.328 231.622 461.329 231.622 461.329L222.294 455.023C222.294 455.023 242.816 440.567 246.712 436.295C246.712 436.295 260.49 423.316 264.436 416.283C264.436 416.283 274.697 401.311 279.408 391.028C284.119 380.745 285.005 374.977 285.005 374.977C285.005 374.977 289.215 367.717 287.654 357.608C287.293 355.261 288.307 346.582 282.897 337.347C277.486 328.112 273.167 321.415 266.106 315.703C259.044 309.991 245.655 301.197 245.655 301.197L231.386 293.707L222.711 289.018L204.142 282.712C203.209 282.401 193.955 279.456 193.955 279.456L183.591 276.736L169.22 274.425L190.871 255.809L214.325 235.909L225.102 227.961L259.725 214.771L267.788 211.802L286.221 233.481C286.221 233.481 286.246 244.488 290.154 250.744C294.063 257 297.467 265.022 306.323 268.831C312.02 271.223 317.921 273.099 323.953 274.435C323.953 274.435 337.818 273.791 343.188 272.818C348.558 271.844 358.017 267.936 361.499 265.069C364.982 262.202 370.98 258.036 373.85 254.519C376.72 251.002 381.341 243.67 381.341 243.67L405.961 226.382Z" fill="#3F9E23" stroke="black" stroke-width="0.310941" stroke-miterlimit="10"/>
<path d="M366.242 186.448C366.242 186.448 377.837 200.257 364.746 220.963C364.746 220.963 355.306 238.624 332.76 240.673C332.76 240.673 318.662 243.434 304.604 230.963C304.604 230.963 294.032 225.515 295.807 207.953C295.807 207.953 296.796 194.206 306.314 189.315C306.314 189.315 304.138 199.859 302.869 203.335C302.869 203.335 303.606 212.878 314.591 216.165C325.577 219.452 333.742 217.35 343.226 215.767C343.226 215.767 355.947 211.162 361.31 204.794L366.677 198.423L366.242 186.448Z" fill="#77B9CE"/>
<path d="M184.39 429.789C184.39 429.789 183.861 432.513 188.273 438.514C192.685 444.515 200.089 454.353 201.28 456.769C202.471 459.185 204.349 463.087 201.476 464.033C198.603 464.978 181.541 468.896 181.541 468.896C181.541 468.896 175.633 470.071 170.892 470.367C166.15 470.662 156.277 470.637 156.277 470.637L192.657 479.539L209.862 481.859L223.058 483.258L232.271 483.821L246.677 483.373L316.017 481.396L386.371 479.894C386.371 479.894 404.741 479.583 404.809 479.567C404.878 479.552 417.692 479.256 428.254 472.369C438.817 465.482 444.072 456.259 446.261 450.787C448.45 445.314 451.687 433.896 451.687 433.896L453.092 426.745C453.092 426.745 438.301 430.165 422.981 429.394C407.661 428.623 403.457 428.25 403.457 428.25C403.457 428.25 381.853 424.207 381.318 424.4C380.783 424.593 377.587 423.125 377.587 423.125C377.587 423.125 367.686 421.882 358.078 423.436C348.47 424.991 315.23 436.418 315.23 436.418L262.259 457.711L238.888 465.503C238.888 465.503 236.55 465.242 231.615 461.346C226.681 457.45 201.342 438.791 200.966 438.517C200.59 438.243 184.962 425.747 184.39 429.789Z" fill="#8C6257"/>
<path d="M368.788 188.743C368.788 188.743 382.115 203.301 385.598 220.77C385.598 220.77 388.051 233.313 379.562 246.417C379.562 246.417 367.712 264.675 352.725 269.79C352.725 269.79 337.206 278.434 316.531 272.822C316.531 272.822 299.8 269.889 291.703 253.307C291.703 253.307 281.591 240.462 289.15 214.517C289.15 214.517 286.581 226.23 289.937 233.484C293.292 240.739 297.993 246.964 306.326 251.83C314.659 256.696 321.214 258.394 327.781 258.397C334.348 258.4 346.413 256.283 353.051 251.214C359.69 246.146 365.949 241.939 368.804 235.922C371.658 229.906 375.243 224.554 376.73 217.266C378.216 209.977 374.195 194.617 368.788 188.743Z" fill="#336321" stroke="black" stroke-width="0.310941" stroke-miterlimit="10"/>
<path d="M368.787 188.743C368.787 188.743 378.199 199.598 376.713 217.235C376.713 217.235 371.371 235.795 363.585 242.732C355.799 249.669 351.673 252.129 347.363 254.028C343.054 255.928 334.332 258.972 327.774 258.36C321.216 257.747 313.356 256.205 306.319 251.793C299.282 247.38 293.34 241.255 289.929 233.447C289.929 233.447 285.962 219.648 292.759 205.904C292.759 205.904 299.006 196.392 302.221 191.601C302.221 191.601 296.002 202.484 295.812 207.944C295.623 213.404 295.604 223.211 304.609 230.953C313.614 238.696 324.307 241.867 332.765 240.664C341.222 239.461 348.843 237.182 355.513 231.165C362.183 225.148 366.43 219.374 369.418 211.781C372.407 204.188 371.551 199.11 368.787 188.743Z" fill="#EFBD20"/>
<path d="M339.708 17.0323C339.708 17.0323 357.873 17.0634 373.218 35.0078C373.218 35.0078 387.154 50.1817 387.885 82.0594C384.953 84.1766 382.172 86.4945 379.561 88.9965C379.561 88.9965 375.519 64.6622 368.787 53.0082C362.055 41.3541 352.618 30.7572 336.586 26.6404L339.708 17.0323Z" fill="#59C43A" stroke="black" stroke-width="0.310941" stroke-miterlimit="10"/>
<path d="M316.892 26.6496C316.892 26.6496 287.726 38.8292 287.689 84.7023L280.994 79.2578C280.994 79.2578 282.061 67.044 283.674 55.676C285.288 44.308 295.639 30.7509 295.639 30.7509C295.639 30.7509 302.95 23.1671 306.326 21.1646C309.703 19.1622 314.604 17.0322 314.604 17.0322L316.892 26.6496Z" fill="#59C43A" stroke="black" stroke-width="0.310941" stroke-miterlimit="10"/>
<path d="M390.106 61.164C390.183 61.988 392.22 39.1183 385.376 29.0344C385.376 29.0344 380.348 17.0788 369.894 11.5658C359.441 6.05279 355.824 4.67532 354.923 4.38615C354.021 4.09697 341.241 1 338.421 1H320.1C320.1 1 310.035 2.41478 302.271 8.86992C294.507 15.3251 289.043 18.8356 285.719 27.8373C282.396 36.8391 278.997 53.549 280.39 61.164C280.39 61.164 284.616 38.7762 293.449 23.8231C293.449 23.8231 302.933 13.1733 316.898 8.32888H341.633C341.633 8.32888 356.483 9.61929 368.825 20.3778C381.166 31.1364 388.212 41.0492 390.106 61.164Z" fill="#77B9CE"/>
<path d="M281.665 72.252C281.665 72.252 279.119 54.0122 285.341 36.3197C285.341 36.3197 296.864 13.7018 316.886 8.33496H341.621C341.621 8.33496 357.523 12.7876 368.813 20.3839C380.103 27.9802 393.654 45.7847 387.668 75.206C387.668 75.206 385.899 53.7666 379.556 44.3886C373.213 35.0106 362.516 19.2583 339.703 17.0258H314.597C314.597 17.0258 298.456 23.2446 289.762 39.2954C289.769 39.3016 281.479 58.0544 281.665 72.252Z" fill="#ECB019"/>
<path d="M161.583 296.646C161.583 296.646 89.6657 290.427 44.2746 312.392C44.2746 312.392 26.7748 325.025 35.2573 349.515C35.2573 349.515 47.4741 384.679 108.192 403.846C108.192 403.846 139.239 413.756 160.34 414.999C181.44 416.243 202.808 417.586 237.978 410.105C237.978 410.105 269.051 402.226 279.576 384.804C279.576 384.804 274.156 348.775 246.697 346.819C246.697 346.819 240.544 323.673 214.328 330.296C214.328 330.296 219.238 317.712 192.749 312.414C192.736 312.414 182.077 297.265 161.583 296.646Z" fill="#59C43A"/>
<path d="M82.8521 243.67C82.8521 243.67 109.198 246.409 129.465 258.262C129.465 258.262 149.583 269.145 155.314 284.154C161.044 299.164 167.804 311.163 160.174 337.347C160.174 337.347 64.7305 304.446 1 335.04C1 335.04 16.6403 307.341 55.2685 298.56C55.2685 298.56 79.8515 292.59 106.885 302.074C133.918 311.558 157.413 334.368 157.413 334.368C157.413 334.368 145.103 313.448 110.367 297.575C75.6321 281.701 42.1157 287.503 33.9411 290.572C33.9411 290.572 77.392 262.037 118.48 273.977C118.48 273.977 100.604 254.447 82.8521 243.67Z" fill="#336321" stroke="black" stroke-width="0.310941" stroke-miterlimit="10"/>
<path d="M201.269 302.029C201.269 302.029 193.496 298.919 182.948 304.364C172.401 309.808 171.444 324.401 176.627 328.617C181.81 332.833 186.677 335.424 196.079 334.127C196.079 334.127 207.668 330.669 211.763 322.834C215.858 314.998 214.478 314.578 211.763 309.277C209.049 303.975 201.269 302.029 201.269 302.029Z" fill="#EFBD20"/>
<path d="M120.463 343.613C120.463 343.613 112.69 340.504 102.142 345.949C91.5953 351.393 90.6377 365.986 95.8179 370.202C100.998 374.418 105.871 377.012 115.274 375.715C115.274 375.715 126.862 372.257 130.957 364.422C135.052 356.586 133.672 356.166 130.957 350.865C128.243 345.563 120.463 343.613 120.463 343.613Z" fill="#EFBD20"/>
<path d="M211.763 366.641C211.763 366.641 223.659 384.24 226.01 412.856C226.01 412.856 228.883 445.403 228.697 465.368V482.159C228.697 482.159 248.908 450.962 248.842 426.749C248.842 426.749 249.977 417.763 248.158 410.288L268.817 447.399L284.526 480.066C284.526 480.066 285.362 443.13 278.833 417.962C272.303 392.794 256.168 376.821 234.02 369.381C234.02 369.381 260.997 372.991 278.646 395.677C278.646 395.677 286.961 406.522 288.786 412.645L303.17 449.88C303.17 449.88 304.949 423.932 301.839 407.144C298.73 390.357 288.397 374.25 288.397 374.25C288.397 374.25 300.07 383.416 316.04 406.165L326.792 423.102C326.792 423.102 319.103 391.84 314.193 380.745C309.283 369.651 304.691 361.523 295.62 354.067C286.55 346.61 275.944 338.52 253.849 344.552C231.753 350.584 218.401 363.159 218.401 363.159L211.763 366.641Z" fill="#336321"/>
<path d="M296.338 91.309C296.338 91.309 296.288 84.2195 304.233 81.9186C304.233 81.9186 312.771 80.4012 316.201 91.309C316.201 91.309 305.716 87.0926 296.338 91.309Z" fill="white"/>
<path d="M196.822 352.441C196.822 352.441 189.048 349.332 178.501 354.779C167.954 360.227 166.996 374.813 172.18 379.033C177.363 383.252 182.229 385.842 191.632 384.546C191.632 384.546 203.221 381.088 207.316 373.252C211.411 365.417 210.031 364.994 207.316 359.692C204.602 354.391 196.822 352.441 196.822 352.441Z" fill="#EFBD20"/>
<path d="M349.894 81.248C349.894 81.248 344.335 81.2947 341.045 86.0303C341.045 86.0303 339.885 87.2741 339.708 91.3163C339.708 91.3163 347.677 86.8201 356.785 92.0564C356.785 92.0564 361.449 92.1465 358.927 88.4992C356.406 84.8519 354.63 81.6492 349.894 81.248Z" fill="white"/>
<path d="M306.923 131.61C306.923 131.61 319.42 138.021 331.344 136.778C343.269 135.534 354.923 126.33 354.923 126.33C354.923 126.33 344.068 129.157 338.421 129.75C332.775 130.344 306.923 131.61 306.923 131.61Z" fill="#56342E"/>
<path d="M277.996 89.3076C277.996 89.3076 284.339 100.343 290.959 114.323C290.959 114.323 286.563 109.037 292.766 107.725C292.766 107.737 291.833 96.7702 277.996 89.3076Z" fill="#6B463E"/>
<path d="M392.556 92.0488C392.556 92.0488 385.115 93.1309 379.562 100.202C379.562 100.202 376.384 103.917 375.482 108.162C375.482 108.162 379.683 106.144 379.559 110.988C379.559 110.988 379.211 113.84 377.522 114.573C377.522 114.573 382.936 113.877 385.433 108.544C387.929 103.212 393.763 95.8796 392.556 92.0488Z" fill="#6B463E"/>
<path d="M310.812 121.35C310.812 121.35 314.475 124.148 316.891 126.598C319.307 129.049 322.47 131.11 326.422 130.183C330.374 129.257 335.007 124.117 338.421 123.343C338.421 123.343 331.353 124.944 329.478 126.614C327.603 128.284 324.643 128.324 323.458 128.206C322.274 128.088 316.708 123.853 316.708 123.853C316.708 123.853 312.591 123.722 310.812 121.35Z" fill="#56342E"/>
<path d="M323.54 86.0303L314.603 114.575L312.057 118.434L316.982 114.338L323.54 86.0303Z" fill="#6B463E"/>
<path d="M316.202 91.3103C316.202 91.3103 307.685 97.2773 302.272 96.6461L296.861 96.0242C296.861 96.0242 302.203 102.442 306.923 99.8301C311.643 97.2182 318.615 91.6119 316.202 91.3103Z" fill="#6B463E"/>
<path d="M352.724 101.244C352.724 101.244 346.53 101.005 338.731 92.3076C338.731 92.3076 349.201 98.8374 355.982 98.2155C362.764 97.5936 352.724 101.244 352.724 101.244Z" fill="#6B463E"/>
<path d="M314.604 17.0323L318.727 36.3106L312.76 36.6682L320.101 43.5991L312.949 44.0469L313.211 48.5244L319.268 48.1482V55.3713L326.908 56.1642L326.973 49.1432H334.746L334.535 43.7826H327.424L334.746 36.6713L330.626 36.3231L334.215 31.093C334.215 31.093 337.791 25.3686 337.791 24.7778C337.791 24.187 341.618 17.2531 341.618 17.2531L314.604 17.0323Z" fill="#F78FC4" stroke="black" stroke-width="0.621882" stroke-miterlimit="10"/>
<path d="M320.1 0.999908L314.603 12.9058H344.416C343.458 12.9058 338.421 0.999908 338.421 0.999908H320.1Z" fill="#F78FC4" stroke="black" stroke-width="0.621882" stroke-miterlimit="10"/>
<path d="M291.702 95.8115C291.702 95.8115 293.534 125.124 301.32 140.239C304.865 147.136 308.988 153.72 313.645 159.921C314.75 161.387 316.167 162.589 317.794 163.439C319.421 164.289 321.217 164.767 323.051 164.837C326.702 164.971 331.369 164.999 334.755 164.526C341.167 163.612 364.071 152.617 369.58 136.588C375.09 120.559 373.704 116.937 373.704 116.937" stroke="black" stroke-width="0.621882" stroke-miterlimit="10"/>
<path d="M291.702 88.4827C289.41 87.1084 280.788 75.1993 274.336 80.7092C267.884 86.2191 287.209 121.813 295.638 123.246" stroke="black" stroke-width="0.621882" stroke-miterlimit="10"/>
<path d="M277.996 89.3076C286.584 93.1882 292.738 101.982 293.444 111.384" stroke="black" stroke-width="0.621882" stroke-miterlimit="10"/>
<path d="M292.765 107.995C291.052 106.972 288.894 109.198 289.174 111.173C289.454 113.147 291.121 114.593 292.675 115.837" stroke="black" stroke-width="0.621882" stroke-miterlimit="10"/>
<path d="M375.357 93.0641C376.728 92.1468 389.098 74.7434 396.423 83.9038C403.749 93.0641 391.234 119.158 373.218 125.125" stroke="black" stroke-width="0.621882" stroke-miterlimit="10"/>
<path d="M390.184 92.6209C386.611 93.912 383.392 96.0264 380.788 98.7927C378.185 101.559 376.269 104.9 375.196 108.544" stroke="black" stroke-width="0.621882" stroke-miterlimit="10"/>
<path d="M375.482 108.163C375.594 107.056 377.301 107.031 378.178 107.721C380.411 109.478 379.839 113.629 377.211 114.724" stroke="black" stroke-width="0.621882" stroke-miterlimit="10"/>
<path d="M309.043 153.41C309.043 153.41 309.106 187.415 303.611 202.073" stroke="black" stroke-width="0.621882" stroke-miterlimit="10"/>
<path d="M366.689 142.443C366.689 142.443 366.099 189.249 366.689 198.867" stroke="black" stroke-width="0.621882" stroke-miterlimit="10"/>
<path d="M336.586 26.6504C336.586 26.6504 371.237 31.7094 379.561 88.4935" stroke="black" stroke-width="0.621882" stroke-miterlimit="10"/>
<path d="M316.891 26.6504C316.891 26.6504 286.438 41.5445 287.688 84.7031" stroke="black" stroke-width="0.621882" stroke-miterlimit="10"/>
<path d="M334.756 36.7261C333.381 35.7933 312.772 36.7261 312.772 36.7261L320.101 43.5979H312.76V48.1781H319.628L319.171 55.678H327.414L326.957 49.0953H334.731V43.5979H327.862L334.756 36.7261Z" stroke="black" stroke-width="0.621882" stroke-miterlimit="10"/>
<path d="M318.726 36.3195L314.603 17.0411H341.626C341.626 17.0411 332.009 36.3195 330.635 36.3195" stroke="black" stroke-width="0.621882" stroke-miterlimit="10"/>
<path d="M316.891 8.32928L314.603 12.9094H343.458L341.626 8.32928H316.891Z" stroke="black" stroke-width="0.621882" stroke-miterlimit="10"/>
<path d="M387.885 75.1999C398.419 17.9463 341.626 8.32888 341.626 8.32888L338.42 1H320.099L316.89 8.32888C316.89 8.32888 276.577 17.0352 281.39 72.4512" stroke="black" stroke-width="0.621882" stroke-miterlimit="10"/>
<path d="M341.627 17.0322C341.627 17.0322 387.429 21.7958 387.886 81.2478" stroke="black" stroke-width="0.621882" stroke-miterlimit="10"/>
<path d="M314.603 17.0322C314.603 17.0322 280.294 26.9823 281.42 79.2578" stroke="black" stroke-width="0.621882" stroke-miterlimit="10"/>
<path d="M338.421 0.999908C338.421 0.999908 398.156 3.99738 389.191 62.8337" stroke="black" stroke-width="0.621882" stroke-miterlimit="10"/>
<path d="M320.1 0.999908C320.1 0.999908 274.672 9.59121 280.993 62.8337" stroke="black" stroke-width="0.621882" stroke-miterlimit="10"/>
<path d="M320.492 79.2581C320.492 79.2581 314.997 69.7184 297.591 72.9118" stroke="black" stroke-width="0.621882" stroke-miterlimit="10"/>
<path d="M336.586 78.8225C336.586 78.8225 348.619 65.0167 366.253 78.8225" stroke="black" stroke-width="0.621882" stroke-miterlimit="10"/>
<path d="M323.764 85.0713L316.892 114.723C316.892 114.723 309.622 119.222 310.673 121.327C311.724 123.432 315.959 122.599 318.839 125.124C321.718 127.648 325.275 129.231 328.114 127.387C330.953 125.543 335.614 124.082 338.422 123.233C341.229 122.384 339.613 118.653 334.756 114.723C334.756 114.723 344.998 116.619 352.725 123.233" stroke="black" stroke-width="0.621882" stroke-miterlimit="10"/>
<path d="M304.615 130.367C304.615 130.367 334.267 148.762 358.075 123.234" stroke="black" stroke-width="0.621882" stroke-miterlimit="10"/>
<path d="M354.922 120.538C354.922 120.538 358.61 123.172 359.664 126.598" stroke="black" stroke-width="0.621882" stroke-miterlimit="10"/>
<path d="M306.914 131.595C306.914 131.595 316.678 131.757 332.772 130.352C348.866 128.946 355.52 125.771 355.52 125.771" stroke="black" stroke-width="0.621882" stroke-miterlimit="10"/>
<path d="M306.914 131.596C306.914 131.596 313.444 145.992 325.185 147.043C336.926 148.094 350.527 135.831 352.725 128.182" stroke="black" stroke-width="0.621882" stroke-miterlimit="10"/>
<path d="M314.602 115.846C314.705 116.216 302.563 120.737 302.271 128.19" stroke="black" stroke-width="0.621882" stroke-miterlimit="10"/>
<path d="M316.201 90.2556C316.201 90.2556 310.766 77.6935 301.232 83.0884C301.232 83.0884 295.324 86.9876 296.49 91.3097" stroke="black" stroke-width="0.621882" stroke-miterlimit="10"/>
<path d="M359.571 89.7615C359.571 89.7615 354.136 77.1995 344.602 82.6099C344.602 82.6099 338.694 86.5091 339.86 90.8312" stroke="black" stroke-width="0.621882" stroke-miterlimit="10"/>
<path d="M297.996 90.4674C297.996 90.4674 308.298 87.728 315.359 91.3101" stroke="black" stroke-width="0.621882" stroke-miterlimit="10"/>
<path d="M339.708 91.31C339.919 91.2073 348.881 87.4108 356.785 92.05" stroke="black" stroke-width="0.621882" stroke-miterlimit="10"/>
<path d="M304.432 100.581C305.675 100.388 306.764 99.6918 307.83 99.0605C310.473 97.3659 312.855 95.2951 315.246 93.2646C315.728 92.8542 316.207 92.4406 316.708 92.0488C316.306 92.5401 315.881 93.0127 315.464 93.4854C313.057 96.0724 308.095 100.6 304.435 100.581H304.432Z" fill="black"/>
<path d="M338.731 92.0488C342.068 95.7801 346.098 99.1507 350.933 100.677C351.608 100.929 352.341 101.051 353.035 101.243C352.491 101.2 351.94 101.156 351.396 101.088C346.16 100.155 341.539 96.4766 338.731 92.0488Z" fill="black"/>
<path d="M302.271 196.778C302.271 196.778 300.219 217.148 323.744 218.009C347.27 218.87 363.051 207.394 368.787 194.483" stroke="black" stroke-width="0.621882" stroke-miterlimit="10"/>
<path d="M306.325 189.318C305.081 189.032 294.786 198.5 295.638 213.419C296.49 228.338 313.178 241.926 332.77 240.673C359.664 238.954 381.588 205.385 366.442 186.448" stroke="black" stroke-width="0.621882" stroke-miterlimit="10"/>
<path d="M302.228 191.606C302.228 191.606 267.312 230.626 308.447 253.005C349.581 275.383 395.479 222.592 368.797 188.736" stroke="black" stroke-width="0.621882" stroke-miterlimit="10"/>
<path d="M371.405 192.499C371.405 192.499 399.844 220.303 376.713 251.003C353.582 281.702 306.13 281.702 291.702 254.159C277.274 226.615 295.813 200.885 295.589 200.988C287.377 205.179 227.493 225.938 222.71 229.131C217.928 232.324 169.229 274.423 169.229 274.423" stroke="black" stroke-width="0.621882" stroke-miterlimit="10"/>
<path d="M267.79 211.79L286.223 233.469" stroke="black" stroke-width="0.621882" stroke-miterlimit="10"/>
<path d="M381.331 243.67C389.907 238.448 398.135 232.673 405.961 226.382" stroke="black" stroke-width="0.621882" stroke-miterlimit="10"/>
<path d="M227.502 265.069C227.502 265.069 226.702 281.036 222.71 289.012" stroke="black" stroke-width="0.621882" stroke-miterlimit="10"/>
<path d="M382.689 356.881L377.521 423.942C458.885 440.708 471 415.991 471 415.991C471 380.895 453.435 277.725 453.435 277.725C442.259 252.85 380.743 205.795 380.743 205.795" stroke="black" stroke-width="0.621882" stroke-miterlimit="10"/>
<path d="M373.84 362.47L381.33 380.747" stroke="black" stroke-width="0.621882" stroke-miterlimit="10"/>
<path d="M56.1553 298.423C61.5199 294.278 67.2977 290.697 73.397 287.736" stroke="black" stroke-width="0.621882" stroke-miterlimit="10"/>
<path d="M226.007 412.851C216.74 414.536 207.369 415.585 197.96 415.991C98.9653 420.748 17.5329 366.461 35.0886 324.944" stroke="black" stroke-width="0.621882" stroke-miterlimit="10"/>
<path d="M274.433 390.782C272.792 392.416 271.053 393.95 269.228 395.375" stroke="black" stroke-width="0.621882" stroke-miterlimit="10"/>
<path d="M147.339 272.887C160.049 273.242 172.709 274.633 185.193 277.044C185.193 277.044 245.133 291.419 273.04 322.55C279.57 329.842 284.364 338.585 286.591 347.758" stroke="black" stroke-width="0.621882" stroke-miterlimit="10"/>
<path d="M202.906 463.519C181.781 471.09 157.089 473.006 129.232 465.456C34.9547 439.909 32.6973 335.172 32.6973 335.172" stroke="black" stroke-width="0.621882" stroke-miterlimit="10"/>
<path d="M228.643 450.932C226.57 452.358 224.449 453.722 222.278 455.024" stroke="black" stroke-width="0.621882" stroke-miterlimit="10"/>
<path d="M277.405 394.109C276.099 396.752 274.666 399.43 273.111 402.119" stroke="black" stroke-width="0.621882" stroke-miterlimit="10"/>
<path d="M55.7725 375.834C55.7725 375.834 72.4855 424.723 93.7073 449.882" stroke="black" stroke-width="0.621882" stroke-miterlimit="10"/>
<path d="M82.8525 393.311C82.8525 393.311 100.996 447.7 113.552 460.163" stroke="black" stroke-width="0.621882" stroke-miterlimit="10"/>
<path d="M228.725 459.616C213.588 448.441 186.247 425.624 184.391 429.766C181.993 435.111 210.093 461.423 201.492 464.01C192.892 466.597 171.891 472.359 156.462 470.229C156.462 470.229 193.187 482.2 232.307 483.798C232.307 483.798 358.86 479.775 398.573 479.79C438.286 479.806 448.796 451.874 453.122 426.719" stroke="black" stroke-width="0.621882" stroke-miterlimit="10"/>
<path d="M377.522 423.942C377.522 423.942 368.402 419.962 343.458 426.74C318.514 433.519 244.268 467.054 237.878 465.456" stroke="black" stroke-width="0.621882" stroke-miterlimit="10"/>
<path d="M288.397 116.926C288.397 116.926 273.82 134.248 280.39 140.744C286.96 147.239 293.493 143.104 291.702 140.744C289.911 138.384 288.051 137.535 287.66 130.576C287.268 123.617 293.676 113.185 288.397 116.926Z" fill="#F78FC4" stroke="black" stroke-width="0.621882" stroke-miterlimit="10"/>
<path d="M378.508 120.034C378.508 120.034 367.447 139.788 375.121 144.931C382.795 150.074 388.436 144.784 386.231 142.804C384.027 140.823 382.043 140.338 380.342 133.581C378.641 126.824 382.988 115.366 378.508 120.034Z" fill="#F78FC4" stroke="black" stroke-width="0.621882" stroke-miterlimit="10"/>
<path d="M118.772 407.133C118.772 407.133 125.66 456.14 129.233 465.456" stroke="black" stroke-width="0.621882" stroke-miterlimit="10"/>
<path d="M160.339 414.999L144.251 469.401" stroke="black" stroke-width="0.621882" stroke-miterlimit="10"/>
<path d="M187.951 438.345C182.562 449.504 175.703 462.334 169.22 470.502" stroke="black" stroke-width="0.621882" stroke-miterlimit="10"/>
<path d="M197.962 415.991C197.962 415.991 195.235 422.711 191.062 431.753" stroke="black" stroke-width="0.621882" stroke-miterlimit="10"/>
<path d="M201.28 456.755C197.704 460.303 193.786 463.906 189.508 467.454" stroke="black" stroke-width="0.621882" stroke-miterlimit="10"/>
<path d="M227.113 424.257C222.396 431.984 217.055 439.311 211.143 446.166" stroke="black" stroke-width="0.621882" stroke-miterlimit="10"/>
<path d="M209.865 445.067C215.9 444.161 222.066 442.963 228.363 441.473" stroke="black" stroke-width="0.621882" stroke-miterlimit="10"/>
<path d="M50.5391 401.315C50.5391 401.315 106.508 453.466 194.505 446.803" stroke="black" stroke-width="0.621882" stroke-miterlimit="10"/>
<path d="M82.8525 243.67C82.8525 243.67 132.103 271.518 160.339 337.478C160.339 337.478 171.99 300.709 147.339 272.709C135.672 259.453 115.871 248.163 82.8525 243.67Z" stroke="black" stroke-width="0.621882" stroke-miterlimit="10"/>
<path d="M120.016 274.435C120.42 274.124 86.562 260.93 33.9414 290.572C33.9414 290.572 103.151 267.874 161.583 337.478" stroke="black" stroke-width="0.621882" stroke-miterlimit="10"/>
<path d="M160.174 337.349C158.426 336.366 69.8019 304.567 1 335.042C1 335.042 22.5731 297.176 73.8815 296.656C125.19 296.137 160.174 337.349 160.174 337.349Z" stroke="black" stroke-width="0.621882" stroke-miterlimit="10"/>
<path d="M211.763 366.643C211.763 366.643 231.974 387.404 228.277 482.151C228.277 482.151 284.647 401.275 211.763 366.643Z" stroke="black" stroke-width="0.621882" stroke-miterlimit="10"/>
<path d="M245.78 407.537C248.018 409.371 252.253 416.225 257.107 425.006C268.575 445.755 283.494 477.275 283.705 478.901C283.991 481.078 288.506 433.765 273.043 402.08C272.026 399.987 270.902 397.948 269.675 395.97C250.226 364.702 216.557 362.842 211.763 366.642" stroke="black" stroke-width="0.621882" stroke-miterlimit="10"/>
<path d="M218.403 362.469C218.403 362.469 271.018 347.855 301.919 387.512C332.82 427.17 326.409 424.353 326.409 424.353C326.409 424.353 311.555 294.777 218.403 362.469Z" stroke="black" stroke-width="0.621882" stroke-miterlimit="10"/>
<path d="M213.942 366.862C213.942 366.862 268.537 365.908 288.522 412.03C308.506 458.151 302.999 453.829 302.999 453.829C302.999 453.829 321.077 324.664 213.942 366.862Z" stroke="black" stroke-width="0.621882" stroke-miterlimit="10"/>
<path d="M246.697 345.719C237.3 322.016 215.388 329.793 215.388 329.793L214.328 330.296C214.328 330.296 215.702 325.396 212.462 321.133" stroke="black" stroke-width="0.621882" stroke-miterlimit="10"/>
<path d="M67.4268 337.479C67.4268 337.479 77.2836 333.253 82.8494 342.892C82.8494 342.892 90.7629 333.092 97.7591 346.502" stroke="black" stroke-width="0.621882" stroke-miterlimit="10"/>
<path d="M156.446 349.033C156.446 349.033 168.884 341.452 174.714 352.531C174.714 352.531 182.876 342.033 193.955 352.531" stroke="black" stroke-width="0.621882" stroke-miterlimit="10"/>
<path d="M152.295 393.312C152.295 393.312 161.396 384.606 169.219 395.678C169.219 395.678 180.413 385.765 189.508 395.678" stroke="black" stroke-width="0.621882" stroke-miterlimit="10"/>
<path d="M118.772 342.892C118.772 342.892 98.4118 340.867 93.7073 356.029C89.0027 371.19 103.116 376.98 113.552 375.833C123.987 374.685 137.979 361.275 132.149 352.531C126.319 343.787 118.772 342.892 118.772 342.892Z" stroke="black" stroke-width="0.621882" stroke-miterlimit="10"/>
<path d="M195.13 351.719C195.13 351.719 174.769 349.698 170.065 364.857C165.36 380.015 179.474 385.811 189.909 384.664C200.344 383.516 214.34 370.105 208.506 361.343C202.673 352.581 195.13 351.719 195.13 351.719Z" stroke="black" stroke-width="0.621882" stroke-miterlimit="10"/>
<path d="M199.576 301.289C199.576 301.289 179.215 299.268 174.511 314.426C169.806 329.584 183.92 335.377 194.355 334.23C204.79 333.083 218.786 319.675 212.953 310.928C207.119 302.181 199.576 301.289 199.576 301.289Z" stroke="black" stroke-width="0.621882" stroke-miterlimit="10"/>
<path d="M301.876 83.8134C301.876 83.8134 300.107 90.0726 305.564 89.6933C311.021 89.3139 312.053 88.493 312.053 83.9875C312.057 83.9875 304.432 78.8228 301.876 83.8134Z" fill="black"/>
<path d="M344.702 82.8229C344.702 82.8229 342.526 89.6636 348.247 89.7072C353.968 89.7507 355.259 88.8241 355.377 83.8894C355.377 83.8894 350.623 78.8211 344.702 82.8229Z" fill="black"/>
<path d="M149.993 371.045C182.838 277.925 80.2959 255.876 80.2959 255.876" stroke="black" stroke-width="0.621882" stroke-miterlimit="10"/>
<path d="M152.686 369.077C156.976 359.487 167.331 326.67 167.331 326.67C178.599 291.534 147.77 249.601 147.77 249.601" stroke="black" stroke-width="0.621882" stroke-miterlimit="10"/>
<path d="M156.794 295.499C156.794 295.499 157.86 342.305 155.612 348.58" stroke="black" stroke-width="0.621882" stroke-miterlimit="10"/>
<path d="M26.8369 270.181C26.8369 270.181 125.582 275.157 149.69 366.999" stroke="black" stroke-width="0.621882" stroke-miterlimit="10"/>
<path d="M228.277 482.151C228.277 482.151 260.211 402.534 216.962 370.616" stroke="black" stroke-width="0.621882" stroke-miterlimit="10"/>
<path d="M283.705 478.916C280.325 375.283 213.942 366.878 213.942 366.878" stroke="black" stroke-width="0.621882" stroke-miterlimit="10"/>
<path d="M216.962 365.706C216.962 365.706 262.807 351.757 285.332 384.878C307.856 418 303.17 449.865 303.17 449.865" stroke="black" stroke-width="0.621882" stroke-miterlimit="10"/>
<path d="M218.403 362.469C218.403 362.469 251.167 344.979 275.259 352.519C299.351 360.059 325.924 416.134 325.964 421.197" stroke="black" stroke-width="0.621882" stroke-miterlimit="10"/>
<path d="M147.771 249.601C147.771 249.601 166.686 268.139 175.174 290.023C175.174 290.023 184.145 311.064 179.291 326.378C174.438 341.692 172.261 355.296 149.994 371.036C149.994 371.036 95.7601 285.884 26.8369 270.172C26.8369 270.172 56.3172 258.22 92.0164 275.39C92.0164 275.39 114.976 286.015 130.24 310.265C145.504 334.515 149.69 366.99 149.69 366.99C149.69 366.99 153.076 342.954 135.763 308.913C118.449 274.871 88.6054 258.54 80.297 255.866C80.297 255.866 132.066 260.571 156.789 295.489C156.795 295.499 154.957 269.084 147.771 249.601Z" fill="#336321" stroke="black" stroke-width="0.621882" stroke-miterlimit="10"/>
<path opacity="0.4" d="M382.497 359.387C382.497 359.387 367.136 421.211 358.075 423.419C358.075 423.419 373.84 421.864 377.584 423.108C381.327 424.352 382.497 359.387 382.497 359.387Z" fill="black"/>
<path opacity="0.17" d="M222.71 289.019C222.71 289.019 247.788 300.437 259.047 309.973C270.306 319.51 283.534 330.781 286.345 347.33C286.345 347.33 295.897 353.182 300.337 358.393C300.337 358.393 286.792 305.586 225.117 283.814C225.117 283.814 227.315 263.183 227.514 265.07C227.713 266.958 214.355 286.183 214.355 286.183L222.71 289.019Z" fill="black"/>
<path opacity="0.17" d="M296.516 390.056C296.516 390.056 314.79 414.99 317.601 431.753C317.601 431.753 316.358 401.281 300.646 385.923C300.646 385.923 286.078 370.311 288.398 374.251C290.717 378.19 296.516 390.056 296.516 390.056Z" fill="black"/>
<path opacity="0.17" d="M274.433 401.315C274.433 401.315 295.477 436.225 297.582 458.706C297.582 458.706 295.611 425.018 288.786 412.652C281.961 400.286 279.457 395.92 277.405 394.307L274.433 401.315Z" fill="black"/>
<path opacity="0.17" d="M248.823 424.396C248.823 424.396 270.424 452.465 274.432 458.699C278.44 464.933 255.776 422.792 253.158 418.314C250.539 413.836 248.167 410.279 248.167 410.279L248.823 424.396Z" fill="black"/>
<path opacity="0.17" d="M142.848 360.759C142.064 359.692 124.736 340.346 113.551 335.181C102.366 330.016 44.0215 323.878 44.0215 323.878C44.0215 323.878 80.6628 322.109 93.7068 323.433C106.751 324.758 110.809 322.336 118.772 331.344C126.735 340.352 142.848 360.759 142.848 360.759Z" fill="black"/>
<path opacity="0.17" d="M84.3398 271.247C84.3398 271.247 101.911 270.314 105.879 272.709C109.846 275.103 130.798 292.92 138.664 314.947L145.309 332.58L140.452 331.274C140.452 331.274 122.464 289.695 84.3398 271.247Z" fill="black"/>
<path opacity="0.25" d="M386.714 31.0928C386.714 31.0928 385.725 50.0602 370.405 56.1608C370.405 56.1608 374.758 66.7328 376.26 72.6843C377.762 78.6357 379.562 88.9962 379.562 88.9962L387.886 82.0498L388.216 72.2427L390.106 61.1546C390.106 61.1546 390.054 52.6192 390.069 49.1305C390.085 45.6417 389.584 36.1767 386.714 31.0928Z" fill="black"/>
<path opacity="0.25" d="M370.405 56.1611L371.472 96.77C371.472 96.77 379.929 91.0456 379.556 88.9965C379.183 86.9474 376.027 65.5795 370.405 56.1611Z" fill="black"/>
<path opacity="0.25" d="M308.437 158.581C308.437 158.581 315.694 182.213 335.569 177.741C355.445 173.27 366.24 164.921 366.24 164.921L366.676 142.443C366.676 142.443 357.037 156.691 338.408 163.516C338.408 163.516 325.902 166.103 320.087 164.365C314.273 162.627 309.03 153.41 309.03 153.41L308.437 158.581Z" fill="black"/>
<path opacity="0.25" d="M379.573 119.115C379.573 119.115 374.934 131.27 377.521 136.78C380.108 142.289 386.995 147.75 386.712 144.242C386.712 144.242 386.771 143.213 384.1 141.046C381.429 138.878 379.747 133.014 379.928 130.02C380.108 127.025 381.933 116.488 379.573 119.115Z" fill="black"/>
<path opacity="0.25" d="M290.959 114.335C290.959 114.335 284.28 130.193 284.339 131.611C284.501 135.439 286.416 145.964 289.15 144.07C291.883 142.177 293.633 143.137 291.702 140.743C291.702 140.743 287.844 137.208 287.884 133.032C287.884 133.032 286.805 130.709 288.155 125.787C289.504 120.865 290.959 114.335 290.959 114.335Z" fill="black"/>
<path opacity="0.17" d="M361.321 204.797C361.321 204.797 382.08 218.696 385.777 228.531C385.777 228.531 386.43 216.118 380.743 205.795C375.056 195.472 366.253 186.448 366.253 186.448C366.253 186.448 367.291 198.65 361.321 204.797Z" fill="black"/>
<path d="M339.709 118.697L352.725 123.234C352.725 123.234 343.683 116.465 335.092 114.335L339.709 118.697Z" fill="#6B463E"/>
<path opacity="0.17" d="M130.958 350.861C130.958 350.861 128.128 362.366 117.802 366.642C107.476 370.917 98.2812 369.841 93.4336 365.911C93.4336 365.911 96.969 377.416 115.274 375.712C115.274 375.712 140.308 367.102 130.958 350.861Z" fill="black"/>
<path opacity="0.17" d="M179.292 326.388C179.292 326.388 191.027 330.934 201.281 322.934C211.536 314.933 211.763 309.277 211.763 309.277C211.763 309.277 217.827 316.311 211.763 322.834C205.7 329.358 202.258 332.032 196.079 334.128C189.901 336.223 184.839 334.815 180.731 331.715L178.182 329.983L179.292 326.388Z" fill="black"/>
<path opacity="0.17" d="M201.327 354.229C201.327 354.229 206.924 362.003 202.907 369.086C198.89 376.17 187.32 384.988 175.202 381.524C175.202 381.524 182.783 387.143 191.632 384.568C200.482 381.993 205.491 376.794 207.316 373.275C209.141 369.755 211.794 365.812 208.507 361.384C206.469 358.667 204.051 356.258 201.327 354.229Z" fill="black"/>
<path d="M147.77 249.601C147.77 249.601 170.469 279.955 167.645 309.276C164.822 338.598 149.993 371.045 149.993 371.045C149.993 371.045 160.27 347.724 149.682 305.648C139.095 263.571 80.2959 255.875 80.2959 255.875" stroke="black" stroke-width="0.621882" stroke-miterlimit="10"/>
<path d="M26.8369 270.181C26.8369 270.181 67.8034 267.936 95.7757 293.082C123.748 318.228 149.994 371.044 149.994 371.044C168.514 337.463 156.795 295.486 156.795 295.486" stroke="black" stroke-width="0.621882" stroke-miterlimit="10"/>
<path opacity="0.15" d="M175.173 290.031C175.173 290.031 202.411 290.078 235.775 313.461C269.139 336.843 271.823 342.801 271.823 342.801C271.823 342.801 264.491 341.968 257.333 343.793C257.333 343.793 248.937 345.736 246.696 346.818C246.696 346.818 245.52 340.6 240.865 335.786C236.211 330.973 230.175 328.992 226.917 328.781C223.658 328.569 219.143 328.918 219.143 328.918L214.327 330.286C214.327 330.286 215.151 325.46 213.17 322.201C213.17 322.201 212.772 322.005 213.036 319.984C213.036 319.984 215.048 316.698 213.941 313.308C212.834 309.919 209.504 306.07 206.789 304.366C204.075 302.662 201.255 300.566 195.285 301.144C189.314 301.723 186.267 302.771 184.616 303.567C182.965 304.363 179.859 306.43 179.859 306.43C179.859 306.43 178.136 295.196 175.173 290.031Z" fill="black"/>
<path opacity="0.17" d="M185.876 434.803C185.876 434.803 198.003 455.676 195.394 460.172C192.785 464.669 158.79 470.25 158.79 470.25C158.79 470.25 167.885 471.009 181.551 468.894C195.217 466.78 202.906 463.518 202.906 463.518C202.906 463.518 204.589 461.074 199.545 453.938C194.502 446.802 185.876 434.803 185.876 434.803Z" fill="black"/>
<path opacity="0.4" d="M246.697 436.293L257.108 425.005L248.168 410.279L246.697 436.293Z" fill="black"/>
<path opacity="0.17" d="M189.508 416.283C189.508 416.283 205.223 423.593 206.277 431.752C207.331 439.912 200.963 438.5 200.963 438.5L222.275 455.023L228.643 450.931C228.643 450.931 226.849 418.687 226.009 412.85L189.508 416.283Z" fill="black"/>
<path d="M161.614 376.37C164.926 369.529 189.061 328.227 164.577 300.118C140.094 272.009 143.987 278.856 143.987 278.856C143.987 278.856 134.223 315.155 143.782 333.519C153.34 351.883 161.614 376.37 161.614 376.37Z" fill="#336321" stroke="black" stroke-width="0.310941" stroke-miterlimit="10"/>
<path d="M165.65 376.548C165.65 376.548 164.578 300.125 211.611 293.415C211.611 293.415 230.267 290.999 242.543 299.422C242.543 299.422 178.122 319.456 165.65 376.548Z" fill="#336321" stroke="black" stroke-width="0.310941" stroke-miterlimit="10"/>
<path d="M143.986 278.856C143.986 278.856 170.451 336.539 161.614 376.371C161.614 376.371 165.034 302.892 242.542 299.422" stroke="black" stroke-width="0.310941" stroke-miterlimit="10"/>
<path d="M128.061 380.634C134.531 376.666 177.13 354.879 171.661 318.004C166.191 281.13 165.778 288.997 165.778 288.997C165.778 288.997 137.986 314.307 136.139 334.929C134.292 355.55 128.061 380.634 128.061 380.634Z" fill="#336321" stroke="black" stroke-width="0.310941" stroke-miterlimit="10"/>
<path d="M131.346 382.956C131.346 382.956 171.644 318.004 214.871 337.711C214.871 337.711 231.876 345.724 237.684 359.443C237.684 359.443 172.617 341.586 131.346 382.956Z" fill="#336321" stroke="black" stroke-width="0.310941" stroke-miterlimit="10"/>
<path d="M165.762 288.996C165.762 288.996 156.956 351.847 128.061 380.634C128.061 380.634 170.538 320.578 237.701 359.443" stroke="black" stroke-width="0.310941" stroke-miterlimit="10"/>
<path d="M89.3224 358.27C92.6339 351.43 116.769 310.127 92.2857 282.018C67.8022 253.909 71.6952 260.756 71.6952 260.756C71.6952 260.756 61.9285 297.055 71.4899 315.42C81.0514 333.784 89.3224 358.27 89.3224 358.27Z" fill="#336321" stroke="black" stroke-width="0.310941" stroke-miterlimit="10"/>
<path d="M93.3594 358.461C93.3594 358.461 92.3022 282.032 139.32 275.328C139.32 275.328 157.976 272.912 170.249 281.338C170.249 281.338 105.819 301.369 93.3594 358.461Z" fill="#336321" stroke="black" stroke-width="0.310941" stroke-miterlimit="10"/>
<path d="M71.6953 260.77C71.6953 260.77 98.1564 318.471 89.3226 358.271C89.3226 358.271 92.7274 284.793 170.248 281.326" stroke="black" stroke-width="0.310941" stroke-miterlimit="10"/>
</svg>
